# xmcd
# 
# Track frame offsets:
#     150
#     20501
#     40041
#     59437
# 
# Disc length: 1051
# 
# Revision: 1
# Processed by: cddbd v1.5.2PL0 Copyright (c) Steve Scherf et al.
# Submitted via: fre:ac v1.0.17
# 
DISCID=2b041904
DTITLE=三田杏華 - 三田杏華1stシングル『孫の唄・何がなんでも幸せに』2016-01-31
DYEAR=2016
DGENRE=Blues
TTITLE0=孫の唄
TTITLE1=何がなんでも幸せに
TTITLE2=孫の唄(ｵﾘｼﾞﾅﾙｶﾗｵｹ)
TTITLE3=何がなんでも幸せに(ｵﾘｼﾞﾅﾙｶﾗｵｹ)
EXTD=
EXTT0=
EXTT1=
EXTT2=
EXTT3=
PLAYORDER=
